# xmcd CD database file
#
# Track frame offsets:
#	150
#	12235
#	26626
#	40935
#	56229
#	71799
#	83709
#	98373
#	119418
#	136510
#	151485
#	160041
#
# Disc length: 2285 seconds
#
# Revision: 0
# Processed by: cddbd v1.5.2PL0 Copyright (c) Steve Scherf et al.
# Submitted via: CDex 1.51
#
DISCID=9008eb0c
DTITLE=Steve Strongman - A Natural Fact
DYEAR=2012
DGENRE=Blues
TTITLE0=Haven't Seen It Yet
TTITLE1=The Mood
TTITLE2=Can't Go Back
TTITLE3=Secret
TTITLE4=Leaving
TTITLE5=I Forgot
TTITLE6=Comin' Home Tonight
TTITLE7=Rockin' Chair Blues
TTITLE8=I Got Trouble
TTITLE9=You Do It To Yourself
TTITLE10=Full Of You
TTITLE11=Just One Thing
EXTD=YEAR: 2012
EXTT0=
EXTT1=
EXTT2=
EXTT3=
EXTT4=
EXTT5=
EXTT6=
EXTT7=
EXTT8=
EXTT9=
EXTT10=
EXTT11=
PLAYORDER=
